<svg xmlns="http://www.w3.org/2000/svg" xmlns:xlink="http://www.w3.org/1999/xlink" viewBox="0 0 258.96 211.44"><defs><style>.cls-1{isolation:isolate;}.cls-2{opacity:0.4;mix-blend-mode:multiply;fill:url(#linear-gradient);}.cls-3{fill:#cec09f;stroke:#212683;}.cls-3,.cls-4,.cls-7{stroke-miterlimit:10;stroke-width:6px;}.cls-4{fill:#a8dedb;stroke:#1f2687;}.cls-5{fill:#212683;}.cls-6{fill:#1f268e;}.cls-7{fill:none;stroke:#1f268e;}</style><linearGradient id="linear-gradient" x1="361.78" y1="990.07" x2="585.21" y2="990.07" gradientTransform="translate(-886.73 -291.16) rotate(-42)" gradientUnits="userSpaceOnUse"><stop offset="0" stop-color="#efa6c2"/><stop offset="1" stop-color="#96cdbd"/></linearGradient></defs><title>Air Conditioner</title><g class="cls-1"><g id="Layer_2" data-name="Layer 2"><g id="Layer_1-2" data-name="Layer 1"><path class="cls-2" d="M171.63,67.57A53.78,53.78,0,1,0,66.11,58.88a68.07,68.07,0,1,0,62,100.32,68.09,68.09,0,1,0,43.57-91.63Z"/><path class="cls-3" d="M88.45,71.16H196A26.43,26.43,0,0,1,222.45,97.6v50.8A26.43,26.43,0,0,1,196,174.83H56.5A26.43,26.43,0,0,1,30.07,148.4V97.6A26.43,26.43,0,0,1,56.5,71.16h5.28"/><path class="cls-4" d="M83.48,133.79H162.7a16.15,16.15,0,0,1,16.15,16.15v24.53a0,0,0,0,1,0,0H67.32a0,0,0,0,1,0,0V149.94A16.15,16.15,0,0,1,83.48,133.79Z"/><path class="cls-5" d="M44.72,29.9H42.15V27.33a3.17,3.17,0,0,0-6.34,0V29.9H33.24a3.17,3.17,0,0,0,0,6.34h2.57v2.57a3.17,3.17,0,1,0,6.34,0V36.24h2.57a3.17,3.17,0,0,0,0-6.34Z"/><path class="cls-5" d="M202.12,29.79H199.6V27.26a3.11,3.11,0,0,0-6.21,0v2.52h-2.52a3.11,3.11,0,0,0,0,6.21h2.52v2.52a3.11,3.11,0,1,0,6.21,0V36h2.52a3.11,3.11,0,0,0,0-6.21Z"/><path class="cls-5" d="M193.5,199.36h-2.57v-2.57a3.17,3.17,0,0,0-6.34,0v2.57H182a3.17,3.17,0,0,0,0,6.34h2.57v2.57a3.17,3.17,0,1,0,6.34,0v-2.57h2.57a3.17,3.17,0,0,0,0-6.34Z"/><circle class="cls-5" cx="75.28" cy="71.16" r="3.33"/><rect class="cls-4" x="156.12" y="89.6" width="42.67" height="12.67" rx="6.33" ry="6.33"/><circle class="cls-6" cx="53.95" cy="98.77" r="4.5"/><circle class="cls-6" cx="71.95" cy="98.77" r="4.5"/><circle class="cls-6" cx="89.95" cy="98.77" r="4.5"/><path class="cls-7" d="M67.32,154.13h67.13"/><line class="cls-7" x1="139.45" y1="154.13" x2="145.45" y2="154.13"/></g></g></g></svg>