<svg xmlns="http://www.w3.org/2000/svg" xmlns:xlink="http://www.w3.org/1999/xlink" viewBox="0 0 223.44 237.26"><defs><style>.cls-1{isolation:isolate;}.cls-2{opacity:0.4;mix-blend-mode:multiply;fill:url(#linear-gradient);}.cls-3{fill:#9faed0;}.cls-3,.cls-5{stroke:#212683;}.cls-3,.cls-4,.cls-5{stroke-miterlimit:10;stroke-width:6px;}.cls-4{fill:#f2a7c5;stroke:#1f2687;}.cls-5{fill:none;}.cls-6{fill:#212683;}</style><linearGradient id="linear-gradient" y1="123.1" x2="223.44" y2="123.1" gradientUnits="userSpaceOnUse"><stop offset="0" stop-color="#efa6c2"/><stop offset="1" stop-color="#96cdbd"/></linearGradient></defs><title>Bag Travel</title><g class="cls-1"><g id="Layer_2" data-name="Layer 2"><g id="Layer_1-2" data-name="Layer 1"><path class="cls-2" d="M184.76,107.74a53.78,53.78,0,1,0-72.61-77.06,68.07,68.07,0,1,0-21.07,116,68.09,68.09,0,1,0,93.69-38.95Z"/><path class="cls-3" d="M169.21,95.93v70.82a25.35,25.35,0,0,1-21.09,25,24.79,24.79,0,0,1-4.25.36H85.37a24.79,24.79,0,0,1-4.25-.36,25.35,25.35,0,0,1-21.1-25V64.45a25.35,25.35,0,0,1,21.1-25,24.79,24.79,0,0,1,4.25-.36h58.5a24.79,24.79,0,0,1,4.25.36,25.35,25.35,0,0,1,21.09,25v4.82"/><path class="cls-4" d="M91.12,192.1v15.4a5,5,0,0,1-5,5h0a5,5,0,0,1-5-5V191.74"/><path class="cls-4" d="M148.12,191.74V207.5a5,5,0,0,1-5,5h0a5,5,0,0,1-5-5V192.1"/><path class="cls-5" d="M81.12,39.47V22.11A19.11,19.11,0,0,1,100.23,3H129a19.11,19.11,0,0,1,19.11,19.11V39.47"/><rect class="cls-4" x="82.74" y="82.6" width="11" height="66" rx="5.5" ry="5.5"/><rect class="cls-4" x="109.12" y="82.6" width="11" height="66" rx="5.5" ry="5.5"/><rect class="cls-4" x="135.5" y="82.6" width="11" height="66" rx="5.5" ry="5.5"/><path class="cls-6" d="M33.31,35.93H30.74V33.36a3.17,3.17,0,0,0-6.34,0v2.57H21.83a3.17,3.17,0,0,0,0,6.34H24.4v2.57a3.17,3.17,0,1,0,6.34,0V42.27h2.57a3.17,3.17,0,0,0,0-6.34Z"/><path class="cls-6" d="M202.58,31H200V28.43a3.17,3.17,0,0,0-6.34,0V31h-2.57a3.17,3.17,0,0,0,0,6.34h2.57v2.57a3.17,3.17,0,1,0,6.34,0V37.34h2.57a3.17,3.17,0,0,0,0-6.34Z"/><path class="cls-6" d="M203.19,164.62h-2.85v-2.85a3.51,3.51,0,0,0-7,0v2.85h-2.85a3.51,3.51,0,0,0,0,7h2.85v2.85a3.51,3.51,0,1,0,7,0v-2.85h2.85a3.51,3.51,0,0,0,0-7Z"/><circle class="cls-6" cx="169.21" cy="82.6" r="3.33"/><line class="cls-5" x1="60.52" y1="59.45" x2="125.24" y2="59.45"/><line class="cls-5" x1="131.24" y1="59.45" x2="138.12" y2="59.45"/><line class="cls-5" x1="60.52" y1="171.75" x2="112.24" y2="171.75"/><line class="cls-5" x1="117.24" y1="171.75" x2="125.24" y2="171.75"/></g></g></g></svg>