<svg xmlns="http://www.w3.org/2000/svg" xmlns:xlink="http://www.w3.org/1999/xlink" viewBox="0 0 258.96 226.35"><defs><style>.cls-1{isolation:isolate;}.cls-2{opacity:0.4;mix-blend-mode:multiply;fill:url(#linear-gradient);}.cls-3{fill:#9dcc96;}.cls-3,.cls-6{stroke:#212683;}.cls-3,.cls-4,.cls-5,.cls-6{stroke-miterlimit:10;stroke-width:6px;}.cls-4{fill:#a8dedb;stroke:#1f2687;}.cls-5{fill:none;stroke:#1f268e;}.cls-6{fill:#cec09f;}.cls-7{fill:#212683;}</style><linearGradient id="linear-gradient" x1="191.1" y1="563.04" x2="414.53" y2="563.04" gradientTransform="translate(-474.16 -87.99) rotate(-42)" gradientUnits="userSpaceOnUse"><stop offset="0" stop-color="#efa6c2"/><stop offset="1" stop-color="#96cdbd"/></linearGradient></defs><title>Bathtub</title><g class="cls-1"><g id="Layer_2" data-name="Layer 2"><g id="Layer_1-2" data-name="Layer 1"><path class="cls-2" d="M171.63,67.57A53.78,53.78,0,1,0,66.11,58.88a68.07,68.07,0,1,0,62,100.32,68.09,68.09,0,1,0,43.57-91.63Z"/><rect class="cls-3" x="27.1" y="127.92" width="192.54" height="22.14" rx="8.5" ry="8.5"/><path class="cls-4" d="M136.7,210.84h14.88a54.54,54.54,0,0,0,54.54-54.54v-6.24H43.33v6.24a54.53,54.53,0,0,0,54.53,54.54H110"/><path class="cls-5" d="M206.12,127.92V64.07a26,26,0,0,0-26-26h0a26,26,0,0,0-26,26v6.67"/><path class="cls-6" d="M140.29,69.41H168a0,0,0,0,1,0,0v1.5a13.83,13.83,0,0,1-13.83,13.83h0a13.83,13.83,0,0,1-13.83-13.83v-1.5A0,0,0,0,1,140.29,69.41Z" transform="translate(308.24 154.15) rotate(180)"/><path class="cls-7" d="M78.37,43.71H75.91V41.24a3,3,0,0,0-6.07,0v2.47H67.37a3,3,0,0,0,0,6.07h2.47v2.47a3,3,0,1,0,6.07,0V49.78h2.47a3,3,0,0,0,0-6.07Z"/><path class="cls-7" d="M16.88,208.52H14.41v-2.47a3,3,0,0,0-6.07,0v2.47H5.87a3,3,0,0,0,0,6.07H8.34v2.47a3,3,0,1,0,6.07,0v-2.47h2.47a3,3,0,0,0,0-6.07Z"/><path class="cls-7" d="M209.74,216.32h-2.14v-2.14a2.63,2.63,0,0,0-5.26,0v2.14h-2.14a2.63,2.63,0,0,0,0,5.26h2.14v2.14a2.63,2.63,0,1,0,5.26,0v-2.14h2.14a2.63,2.63,0,0,0,0-5.26Z"/><circle class="cls-7" cx="123.37" cy="210.84" r="3.33"/><line class="cls-5" x1="45.07" y1="170.01" x2="147.87" y2="170.01"/><line class="cls-5" x1="154.12" y1="170.01" x2="162.37" y2="170.01"/><line class="cls-5" x1="54.62" y1="190.06" x2="120.04" y2="190.06"/></g></g></g></svg>