<svg xmlns="http://www.w3.org/2000/svg" xmlns:xlink="http://www.w3.org/1999/xlink" viewBox="0 0 216.56 236.05"><defs><style>.cls-1{isolation:isolate;}.cls-2{opacity:0.4;mix-blend-mode:multiply;fill:url(#linear-gradient);}.cls-3{fill:#9faed0;}.cls-3,.cls-5{stroke:#212683;}.cls-3,.cls-4,.cls-5,.cls-6{stroke-miterlimit:10;stroke-width:6px;}.cls-4{fill:#a8dedb;}.cls-4,.cls-6{stroke:#1f2687;}.cls-5{fill:none;}.cls-6{fill:#f2a7c5;}.cls-7{fill:#212683;}</style><linearGradient id="linear-gradient" x1="-320.43" y1="440.65" x2="-116.04" y2="440.65" gradientTransform="translate(536.82 -161.77) rotate(27.99)" gradientUnits="userSpaceOnUse"><stop offset="0" stop-color="#efa6c2"/><stop offset="1" stop-color="#96cdbd"/></linearGradient></defs><title>Bed</title><g class="cls-1"><g id="Layer_2" data-name="Layer 2"><g id="Layer_1-2" data-name="Layer 1"><path class="cls-2" d="M186.47,129.29a56.57,56.57,0,0,0-18.44-6A67.89,67.89,0,1,0,68,98.29a56.69,56.69,0,1,0,38.72,100.82,56.68,56.68,0,1,0,79.73-69.83Z"/><path class="cls-3" d="M17.23,107.26V70.52A12.51,12.51,0,0,1,29.73,58H185.51A12.5,12.5,0,0,1,198,70.52v36.74"/><path class="cls-4" d="M31.21,103.43V90.21a7.88,7.88,0,0,1,7.88-7.88H86.65a7.88,7.88,0,0,1,7.88,7.88v13.23Z"/><path class="cls-4" d="M120.72,103.43V90.21a7.88,7.88,0,0,1,7.88-7.88h47.56A7.88,7.88,0,0,1,184,90.21v13.23Z"/><line class="cls-5" x1="31.21" y1="92.88" x2="67.04" y2="92.88"/><path class="cls-6" d="M27.14,103.43h161a15.68,15.68,0,0,1,15.68,15.68v1.23a0,0,0,0,1,0,0H11.46a0,0,0,0,1,0,0v-1.23A15.68,15.68,0,0,1,27.14,103.43Z"/><path class="cls-3" d="M68.21,150h144V129.19a8.85,8.85,0,0,0-8.84-8.85H11.85A8.85,8.85,0,0,0,3,129.19V150H41.54"/><rect class="cls-6" x="3" y="149.96" width="20.96" height="41.95"/><rect class="cls-6" x="191.29" y="149.96" width="20.96" height="41.95"/><path class="cls-7" d="M128.6,192.9h-2.95V190a3.63,3.63,0,0,0-7.26,0v2.95h-2.95a3.63,3.63,0,0,0,0,7.26h2.95v2.95a3.63,3.63,0,1,0,7.26,0v-2.95h2.95a3.63,3.63,0,0,0,0-7.26Z"/><path class="cls-7" d="M16.46,26.41H14.22V24.17a2.76,2.76,0,0,0-5.51,0v2.24H6.47a2.76,2.76,0,0,0,0,5.51H8.71v2.24a2.76,2.76,0,1,0,5.51,0V31.93h2.24a2.76,2.76,0,0,0,0-5.51Z"/><path class="cls-7" d="M206,28.66h-1.76V26.9a2.17,2.17,0,0,0-4.33,0v1.76H198.2a2.17,2.17,0,0,0,0,4.33H200v1.76a2.17,2.17,0,1,0,4.33,0V33H206a2.17,2.17,0,0,0,0-4.33Z"/><circle class="cls-7" cx="55.79" cy="149.96" r="3.33"/><line class="cls-5" x1="3" y1="135.15" x2="125.04" y2="135.15"/><line class="cls-5" x1="130.29" y1="135.15" x2="138.54" y2="135.15"/></g></g></g></svg>