<svg xmlns="http://www.w3.org/2000/svg" xmlns:xlink="http://www.w3.org/1999/xlink" viewBox="0 0 258.96 214.97"><defs><style>.cls-1{isolation:isolate;}.cls-2{opacity:0.4;mix-blend-mode:multiply;fill:url(#linear-gradient);}.cls-3{fill:#f2a7c5;}.cls-4{fill:#a8dedb;stroke:#1f2687;}.cls-4,.cls-5{stroke-miterlimit:10;stroke-width:6px;}.cls-5{fill:none;stroke:#212683;}.cls-6{fill:#212683;}</style><linearGradient id="linear-gradient" x1="604.57" y1="363.35" x2="828" y2="363.35" gradientTransform="translate(-647.84 337.07) rotate(-42)" gradientUnits="userSpaceOnUse"><stop offset="0" stop-color="#efa6c2"/><stop offset="1" stop-color="#96cdbd"/></linearGradient></defs><title>Book Hotel</title><g class="cls-1"><g id="Layer_2" data-name="Layer 2"><g id="Layer_1-2" data-name="Layer 1"><path class="cls-2" d="M171.63,67.57A53.78,53.78,0,1,0,66.11,58.88a68.07,68.07,0,1,0,62,100.32,68.09,68.09,0,1,0,43.57-91.63Z"/><rect class="cls-3" x="44.77" y="27.65" width="131.48" height="184.32" rx="8.33" ry="8.33"/><path class="cls-4" d="M136.23,89.16a7,7,0,0,0-12,5v13.31a7,7,0,0,1-7,7H103.8a7,7,0,0,1-7-7V94.12a7,7,0,0,0-14,0v55.42a7,7,0,1,0,14,0V133.19a7,7,0,0,1,7-7h13.46a7,7,0,0,1,7,7v16.35a7,7,0,1,0,14,0V94.12A7,7,0,0,0,136.23,89.16Z"/><line class="cls-5" x1="44.21" y1="175.15" x2="44.21" y2="125.89"/><path class="cls-5" d="M176.25,76.75v124A11.22,11.22,0,0,1,165,212H56a11.23,11.23,0,0,1-11.22-11.22V187.08"/><path class="cls-5" d="M44.77,52.76V39.09A11.23,11.23,0,0,1,56,27.87H165a11.22,11.22,0,0,1,11.22,11.22v11"/><line class="cls-5" x1="44.21" y1="113.96" x2="44.21" y2="64.7"/><rect class="cls-4" x="20.75" y="52.77" width="47.16" height="11.93" rx="5.97" ry="5.97"/><rect class="cls-4" x="20.75" y="113.96" width="47.16" height="11.93" rx="5.97" ry="5.97"/><rect class="cls-4" x="20.75" y="175.15" width="47.16" height="11.93" rx="5.97" ry="5.97"/><path class="cls-6" d="M23.93,15.57H21.36V13A3.17,3.17,0,0,0,15,13v2.57H12.45a3.17,3.17,0,0,0,0,6.34H15v2.57a3.17,3.17,0,1,0,6.34,0V21.91h2.57a3.17,3.17,0,0,0,0-6.34Z"/><path class="cls-6" d="M201.64,21.7H200V20a2,2,0,0,0-4.09,0V21.7h-1.66a2,2,0,0,0,0,4.09h1.66v1.66a2,2,0,1,0,4.09,0V25.79h1.66a2,2,0,0,0,0-4.09Z"/><path class="cls-6" d="M210.12,177H208v-2.14a2.64,2.64,0,0,0-5.27,0V177h-2.14a2.64,2.64,0,0,0,0,5.27h2.14v2.14a2.64,2.64,0,1,0,5.27,0v-2.14h2.14a2.64,2.64,0,0,0,0-5.27Z"/><circle class="cls-6" cx="176.25" cy="64.26" r="3.33"/><line class="cls-5" x1="156.92" y1="27.87" x2="156.92" y2="76.75"/><line class="cls-5" x1="156.92" y1="83.49" x2="156.92" y2="89.33"/><line class="cls-5" x1="136.25" y1="29.49" x2="136.25" y2="64.26"/></g></g></g></svg>