<svg xmlns="http://www.w3.org/2000/svg" xmlns:xlink="http://www.w3.org/1999/xlink" viewBox="0 0 192.84 225.23"><defs><style>.cls-1{isolation:isolate;}.cls-2{opacity:0.4;mix-blend-mode:multiply;fill:url(#linear-gradient);}.cls-3{fill:#9dcc96;}.cls-3,.cls-4{stroke:#212683;}.cls-3,.cls-4,.cls-5{stroke-miterlimit:10;stroke-width:6px;}.cls-4{fill:none;}.cls-5{fill:#f2a7c5;stroke:#1f2687;}.cls-6{fill:#212683;}</style><linearGradient id="linear-gradient" x1="0.32" y1="112.62" x2="192.84" y2="112.62" gradientUnits="userSpaceOnUse"><stop offset="0" stop-color="#efa6c2"/><stop offset="1" stop-color="#96cdbd"/></linearGradient></defs><title>Breakfast</title><g class="cls-1"><g id="Layer_2" data-name="Layer 2"><g id="Layer_1-2" data-name="Layer 1"><path class="cls-2" d="M160.78,78.28a47.78,47.78,0,1,0-84.3-35.39,67.56,67.56,0,0,0-26.91,132q-.07,1.26-.07,2.53a47.78,47.78,0,1,0,95.12-6.3h.43a47.78,47.78,0,0,0,15.72-92.89Z"/><path class="cls-3" d="M108.38,208.41a88.65,88.65,0,1,0-26.67-.3"/><path class="cls-4" d="M92.83,167.66c1.06.07,2.14.11,3.22.11a46.94,46.94,0,0,0,30.69-11.36"/><path class="cls-4" d="M92.83,73.55c1.06-.07,2.14-.11,3.22-.11a47,47,0,0,1,23.31,6.15"/><ellipse class="cls-5" cx="133.8" cy="116.49" rx="33.75" ry="40.82"/><ellipse class="cls-4" cx="133.8" cy="116.49" rx="15.25" ry="18.45"/><rect class="cls-5" x="44.33" y="58.39" width="24.25" height="121.26" rx="12.13" ry="12.13"/><rect class="cls-5" x="68.58" y="58.39" width="24.25" height="121.26" rx="12.13" ry="12.13"/><path class="cls-6" d="M16.23,35.09H13.38V32.24a3.51,3.51,0,0,0-7,0v2.85H3.51a3.51,3.51,0,0,0,0,7H6.36V45a3.51,3.51,0,1,0,7,0V42.11h2.85a3.51,3.51,0,0,0,0-7Z"/><path class="cls-6" d="M177.52,30.23h-2.47V27.77a3,3,0,0,0-6.07,0v2.47h-2.47a3,3,0,0,0,0,6.07H169v2.47a3,3,0,1,0,6.07,0V36.31h2.47a3,3,0,0,0,0-6.07Z"/><path class="cls-6" d="M169.5,209.38h-3.13v-3.13a3.85,3.85,0,0,0-7.7,0v3.13h-3.13a3.85,3.85,0,0,0,0,7.7h3.13v3.13a3.85,3.85,0,1,0,7.7,0v-3.13h3.13a3.85,3.85,0,0,0,0-7.7Z"/><circle class="cls-6" cx="95.26" cy="208.94" r="3.33"/><line class="cls-4" x1="56.45" y1="58.39" x2="56.45" y2="119.02"/><line class="cls-4" x1="56.45" y1="125.27" x2="56.45" y2="130.6"/><line class="cls-4" x1="80.71" y1="58.39" x2="80.71" y2="79.59"/><line class="cls-4" x1="130.05" y1="98.05" x2="130.05" y2="111.27"/></g></g></g></svg>