<svg xmlns="http://www.w3.org/2000/svg" xmlns:xlink="http://www.w3.org/1999/xlink" viewBox="0 0 202.84 218.72"><defs><style>.cls-1{isolation:isolate;}.cls-2{opacity:0.4;mix-blend-mode:multiply;fill:url(#linear-gradient);}.cls-3{fill:#f2a7c5;stroke:#1f2687;}.cls-3,.cls-4{stroke-miterlimit:10;stroke-width:6px;}.cls-4{fill:none;stroke:#1f268e;}.cls-5{fill:#212683;}</style><linearGradient id="linear-gradient" x1="-523.76" y1="-61.5" x2="-295.27" y2="-61.5" gradientTransform="translate(-277.27 279.04) rotate(147.92)" gradientUnits="userSpaceOnUse"><stop offset="0" stop-color="#efa6c2"/><stop offset="1" stop-color="#96cdbd"/></linearGradient></defs><title>Card</title><g class="cls-1"><g id="Layer_2" data-name="Layer 2"><g id="Layer_1-2" data-name="Layer 1"><path class="cls-2" d="M98.12,201.28a63.75,63.75,0,0,0,24-27.23A42.1,42.1,0,1,0,176,109.29,64.07,64.07,0,1,0,69.37,83.13,64.08,64.08,0,1,0,98.12,201.28Z"/><path class="cls-3" d="M69.37,170.22h110a6,6,0,0,0,6-6V67.88a6,6,0,0,0-6-6H19.47a6,6,0,0,0-6,6v96.33a6,6,0,0,0,6,6H42.71"/><rect class="cls-4" x="13.47" y="81.31" width="171.91" height="32"/><rect class="cls-5" x="117.81" y="137.01" width="49.33" height="12.67" rx="6.33" ry="6.33"/><path class="cls-5" d="M42.29,23H39.77V20.48a3.11,3.11,0,0,0-6.21,0V23H31a3.11,3.11,0,0,0,0,6.21h2.52v2.52a3.11,3.11,0,1,0,6.21,0V29.22h2.52a3.11,3.11,0,0,0,0-6.21Z"/><path class="cls-5" d="M199.73,23h-2.52V20.48a3.11,3.11,0,0,0-6.21,0V23h-2.52a3.11,3.11,0,0,0,0,6.21H191v2.52a3.11,3.11,0,1,0,6.21,0V29.22h2.52a3.11,3.11,0,0,0,0-6.21Z"/><path class="cls-5" d="M159.41,210.69H157.7V209a2.1,2.1,0,0,0-4.21,0v1.71h-1.71a2.1,2.1,0,0,0,0,4.21h1.71v1.71a2.1,2.1,0,1,0,4.21,0V214.9h1.71a2.1,2.1,0,0,0,0-4.21Z"/><circle class="cls-5" cx="56.37" cy="170.22" r="3.33"/><line class="cls-4" x1="13.47" y1="97.31" x2="108.37" y2="97.31"/><line class="cls-4" x1="112.37" y1="97.31" x2="125.37" y2="97.31"/><line class="cls-4" x1="13.47" y1="143.35" x2="56.37" y2="143.35"/></g></g></g></svg>