<svg xmlns="http://www.w3.org/2000/svg" xmlns:xlink="http://www.w3.org/1999/xlink" viewBox="0 0 204.58 234.41"><defs><style>.cls-1{isolation:isolate;}.cls-2{opacity:0.4;mix-blend-mode:multiply;fill:url(#linear-gradient);}.cls-3,.cls-5{fill:#9faed0;}.cls-4{fill:#a8dedb;stroke:#1f2687;}.cls-4,.cls-5,.cls-6,.cls-7{stroke-miterlimit:10;stroke-width:6px;}.cls-5,.cls-6{stroke:#212683;}.cls-6{fill:#9dcc96;}.cls-7{fill:none;stroke:#1f268e;}.cls-8{fill:#212683;}</style><linearGradient id="linear-gradient" x1="18.18" y1="127.68" x2="197.05" y2="127.68" gradientUnits="userSpaceOnUse"><stop offset="0" stop-color="#efa6c2"/><stop offset="1" stop-color="#96cdbd"/></linearGradient></defs><title>CCTV</title><g class="cls-1"><g id="Layer_2" data-name="Layer 2"><g id="Layer_1-2" data-name="Layer 1"><path class="cls-2" d="M170.66,148.81a34.79,34.79,0,0,0-15.73-52.59A62.06,62.06,0,1,0,38.41,110.05,62.06,62.06,0,0,0,112,209.22a44.78,44.78,0,1,0,58.66-60.41Z"/><path class="cls-3" d="M30.48,180.51H54.23a0,0,0,0,1,0,0V224a11.75,11.75,0,0,1-11.75,11.75h-.25A11.75,11.75,0,0,1,30.48,224V180.51A0,0,0,0,1,30.48,180.51Z" transform="matrix(0.55, 0.84, -0.84, 0.55, 193.4, 58.8)"/><rect class="cls-3" x="72.08" y="126.37" width="26" height="42.75"/><path class="cls-4" d="M61.08,45.11h75.81A12.11,12.11,0,0,1,149,57.21v63.24a12.11,12.11,0,0,1-12.11,12.11H29.19a12.11,12.11,0,0,1-12.11-12.11V58.86A13.75,13.75,0,0,1,30.83,45.11h3.58"/><rect class="cls-5" x="149" y="62.15" width="19.27" height="53.36"/><path class="cls-6" d="M177.9,129.84h0a9.63,9.63,0,0,1-9.63-9.63V57.46a9.63,9.63,0,0,1,9.63-9.63h0a9.63,9.63,0,0,1,9.63,9.63V120.2A9.63,9.63,0,0,1,177.9,129.84Z"/><line class="cls-7" x1="99.1" y1="167.18" x2="99.1" y2="131.75"/><line class="cls-7" x1="71.43" y1="163.76" x2="71.43" y2="131.75"/><path class="cls-7" d="M60.41,186.56l-37.35,20a11.34,11.34,0,1,0,10.7,20l41-21.87"/><circle class="cls-6" cx="83.04" cy="183.43" r="22.84"/><path class="cls-5" d="M187.54,67.35h0a14,14,0,0,1,14,14V96.26a14,14,0,0,1-14,14h0a0,0,0,0,1,0,0v-43A0,0,0,0,1,187.54,67.35Z"/><path class="cls-8" d="M154.5,5.5H152V3A3,3,0,0,0,146,3V5.5H143.5a3,3,0,0,0,0,6.07H146V14A3,3,0,1,0,152,14V11.58h2.47a3,3,0,0,0,0-6.07Z"/><path class="cls-8" d="M14,157.55H11.58v-2.47a3,3,0,0,0-6.07,0v2.47H3a3,3,0,0,0,0,6.07H5.5v2.47a3,3,0,1,0,6.07,0v-2.47H14a3,3,0,0,0,0-6.07Z"/><path class="cls-8" d="M169.25,172h-1.67v-1.67a2.06,2.06,0,0,0-4.12,0V172h-1.67a2.06,2.06,0,0,0,0,4.12h1.67v1.67a2.06,2.06,0,1,0,4.12,0V176.1h1.67a2.06,2.06,0,0,0,0-4.12Z"/><circle class="cls-8" cx="47.83" cy="45.11" r="3.33"/><line class="cls-7" x1="120.58" y1="132.56" x2="120.58" y2="79.16"/><line class="cls-7" x1="120.58" y1="67.35" x2="120.58" y2="72.91"/><line class="cls-7" x1="105.88" y1="132.56" x2="105.88" y2="90.66"/><line class="cls-7" x1="88.33" y1="206.27" x2="88.33" y2="184.66"/><line class="cls-7" x1="88.33" y1="174.16" x2="88.33" y2="179.43"/></g></g></g></svg>