<svg xmlns="http://www.w3.org/2000/svg" xmlns:xlink="http://www.w3.org/1999/xlink" viewBox="0 0 232.71 233.22"><defs><style>.cls-1{isolation:isolate;}.cls-2{opacity:0.4;mix-blend-mode:multiply;fill:url(#linear-gradient);}.cls-3,.cls-6{fill:#a8dedb;}.cls-4{fill:none;stroke:#212683;}.cls-4,.cls-5,.cls-6{stroke-miterlimit:10;stroke-width:6px;}.cls-5{fill:#f2a7c5;}.cls-5,.cls-6{stroke:#1f2687;}.cls-7{fill:#212683;}</style><linearGradient id="linear-gradient" x1="-1915.68" y1="665.46" x2="-1711.29" y2="665.46" gradientTransform="translate(-1236.46 1519.66) rotate(154.5)" gradientUnits="userSpaceOnUse"><stop offset="0" stop-color="#efa6c2"/><stop offset="1" stop-color="#96cdbd"/></linearGradient></defs><title>Door Handle</title><g class="cls-1"><g id="Layer_2" data-name="Layer 2"><g id="Layer_1-2" data-name="Layer 1"><path class="cls-2" d="M81.11,175.22A56.58,56.58,0,0,0,96.93,164a67.89,67.89,0,1,0,79.55-65.55A56.69,56.69,0,1,0,72.41,69.6a56.68,56.68,0,1,0,8.69,105.62Z"/><rect class="cls-3" x="52.48" y="27.83" width="99" height="179.83"/><path class="cls-4" d="M130,99H109.22a12.5,12.5,0,1,0,0,25h20.43m3.66-95.33h10.17a8,8,0,0,1,8,8V99m0,25v75.67a8,8,0,0,1-8,8h-83a8,8,0,0,1-8-8V97m0-26.66V36.67a8,8,0,0,1,8-8H72.31"/><path class="cls-5" d="M109.22,124h20.43a30.5,30.5,0,1,1,.3-25H109.22a12.5,12.5,0,1,0,0,25Z"/><path class="cls-6" d="M130,99h51.93a12.5,12.5,0,1,1,0,25H129.65"/><path class="cls-7" d="M66.48,55.67h71c3.22,0,3.22-5,0-5h-71c-3.22,0-3.22,5,0,5Z"/><path class="cls-5" d="M83.73,3H121.9a11.42,11.42,0,0,1,11.42,11.42V52.67a0,0,0,0,1,0,0h-61a0,0,0,0,1,0,0V14.42A11.42,11.42,0,0,1,83.73,3Z"/><path class="cls-7" d="M108.2,166.67a6.22,6.22,0,1,0-11.13,3.82,10,10,0,0,1,2.21,6.18v7.22a2.73,2.73,0,0,0,1.83,2.64,2.7,2.7,0,0,0,3.56-2.56v-7.51a9.75,9.75,0,0,1,2.21-6A6.18,6.18,0,0,0,108.2,166.67Z"/><path class="cls-7" d="M26.06,28.37H23.11V25.42a3.63,3.63,0,0,0-7.26,0v2.95H12.9a3.63,3.63,0,0,0,0,7.26h2.95v2.95a3.63,3.63,0,1,0,7.26,0V35.63h2.95a3.63,3.63,0,0,0,0-7.26Z"/><path class="cls-7" d="M185.71,29.66h-1.9v-1.9a2.34,2.34,0,0,0-4.68,0v1.9h-1.9a2.34,2.34,0,0,0,0,4.68h1.9v1.9a2.34,2.34,0,1,0,4.68,0v-1.9h1.9a2.34,2.34,0,0,0,0-4.68Z"/><path class="cls-7" d="M182.69,182.32h-2.63v-2.63a3.24,3.24,0,0,0-6.48,0v2.63H171a3.24,3.24,0,0,0,0,6.48h2.63v2.63a3.24,3.24,0,1,0,6.48,0V188.8h2.63a3.24,3.24,0,0,0,0-6.48Z"/><circle class="cls-7" cx="52.48" cy="84.79" r="3.33"/><path class="cls-4" d="M96.72,111.5h62"/><line class="cls-4" x1="162.02" y1="111.17" x2="167.72" y2="111.17"/><line class="cls-4" x1="86.72" y1="3" x2="86.72" y2="25.33"/><line class="cls-4" x1="86.72" y1="28.67" x2="86.72" y2="35.33"/></g></g></g></svg>