<svg xmlns="http://www.w3.org/2000/svg" xmlns:xlink="http://www.w3.org/1999/xlink" viewBox="0 0 231 226.14"><defs><style>.cls-1{isolation:isolate;}.cls-2{opacity:0.4;mix-blend-mode:multiply;fill:url(#linear-gradient);}.cls-3{fill:#a8dedb;stroke:#1f2687;}.cls-3,.cls-4,.cls-5{stroke-miterlimit:10;stroke-width:6px;}.cls-4{fill:#9faed0;stroke:#212683;}.cls-5{fill:none;stroke:#1f268e;}.cls-6{fill:#212683;}</style><linearGradient id="linear-gradient" x1="17.01" y1="96.58" x2="221.39" y2="96.58" gradientTransform="matrix(0.95, -0.32, 0.32, 0.95, -24.53, 47.26)" gradientUnits="userSpaceOnUse"><stop offset="0" stop-color="#efa6c2"/><stop offset="1" stop-color="#96cdbd"/></linearGradient></defs><title>Fire Extinguisher</title><g class="cls-1"><g id="Layer_2" data-name="Layer 2"><g id="Layer_1-2" data-name="Layer 1"><path class="cls-2" d="M156.24,68.18a56.58,56.58,0,0,0-17.07,9.23,67.89,67.89,0,1,0-86.88,55.47,56.69,56.69,0,1,0,99.83,41.21,56.68,56.68,0,1,0,4.12-105.9Z"/><path class="cls-3" d="M101.67,50.45V54h0a43.25,43.25,0,0,1,43.25,43.25v64.47h15.66V95.95A58.91,58.91,0,0,0,101.67,37h0"/><path class="cls-3" d="M84.52,29.22h0a6.7,6.7,0,0,0-2.5-.47H57.67a7.08,7.08,0,1,0,0,14.16H73.28"/><path class="cls-3" d="M73.26,43.51l-20,9.13a7.08,7.08,0,1,0,5.88,12.89l20.62-9.41.48-.23"/><path class="cls-4" d="M55.25,160.73V101.58a33,33,0,1,1,66,0v111h-66V187.4"/><line class="cls-3" x1="96.25" y1="56.43" x2="96.25" y2="69.56"/><polyline class="cls-5" points="80.25 55.88 80.25 56.42 80.25 69.56"/><circle class="cls-3" cx="88.25" cy="43.74" r="15"/><path class="cls-3" d="M145.07,161.75h15.81l7.42,41.52a5.09,5.09,0,0,1-5,6H142.66a5.09,5.09,0,0,1-5-6Z"/><path class="cls-6" d="M18.49,103.82H15.25v-3.25a4,4,0,0,0-8,0v3.25H4a4,4,0,0,0,0,8H7.25v3.25a4,4,0,1,0,8,0v-3.25h3.25a4,4,0,0,0,0-8Z"/><path class="cls-6" d="M210.83,154.87h-3.25v-3.25a4,4,0,0,0-8,0v3.25h-3.25a4,4,0,0,0,0,8h3.25v3.25a4,4,0,1,0,8,0v-3.25h3.25a4,4,0,0,0,0-8Z"/><path class="cls-6" d="M180.92,24.46h-2.2v-2.2a2.71,2.71,0,0,0-5.42,0v2.2h-2.2a2.71,2.71,0,0,0,0,5.42h2.2v2.2a2.71,2.71,0,1,0,5.42,0v-2.2h2.2a2.71,2.71,0,0,0,0-5.42Z"/><circle class="cls-6" cx="55.25" cy="174.53" r="3.33"/><line class="cls-5" x1="103.25" y1="212.58" x2="103.25" y2="127.66"/><path class="cls-5" d="M103.25,112.16v9"/></g></g></g></svg>