<svg xmlns="http://www.w3.org/2000/svg" xmlns:xlink="http://www.w3.org/1999/xlink" viewBox="0 0 218.39 231.95"><defs><style>.cls-1{isolation:isolate;}.cls-2{opacity:0.4;mix-blend-mode:multiply;fill:url(#linear-gradient);}.cls-3{fill:#f2a7c5;stroke:#1f2687;}.cls-3,.cls-4,.cls-5,.cls-7{stroke-miterlimit:10;stroke-width:6px;}.cls-4{fill:#cec09f;}.cls-4,.cls-5{stroke:#212683;}.cls-5,.cls-7{fill:none;}.cls-6{fill:#212683;}.cls-7{stroke:#1f268e;}</style><linearGradient id="linear-gradient" x1="11" y1="96.92" x2="193.97" y2="96.92" gradientUnits="userSpaceOnUse"><stop offset="0" stop-color="#efa6c2"/><stop offset="1" stop-color="#96cdbd"/></linearGradient></defs><title>Food</title><g class="cls-1"><g id="Layer_2" data-name="Layer 2"><g id="Layer_1-2" data-name="Layer 1"><path class="cls-2" d="M167.68,112.42A68.39,68.39,0,0,0,171,91.48c0-2-.1-4-.27-5.9a45.74,45.74,0,1,0-62.3-62.3c-1.94-.17-3.91-.27-5.9-.27a68.45,68.45,0,0,0-66.59,84.36,45.74,45.74,0,1,0,62,60.69,45.74,45.74,0,1,0,69.78-55.65Z"/><path class="cls-3" d="M195.34,177.8H21.54a86.9,86.9,0,1,1,173.8,0Z"/><path class="cls-4" d="M122.53,196.85h83.71a9.14,9.14,0,0,0,9.15-9.15V187a9.14,9.14,0,0,0-9.15-9.15H12.16A9.15,9.15,0,0,0,3,187v.75a9.15,9.15,0,0,0,9.16,9.15h83.7"/><path class="cls-5" d="M121.25,91.84c0-.31,0-.62,0-.94a12.85,12.85,0,1,0-25.69,0c0,.32,0,.63,0,.94"/><path class="cls-6" d="M35.54,44.55H32.3V41.3a4,4,0,0,0-8,0v3.25H21a4,4,0,0,0,0,8H24.3V55.8a4,4,0,1,0,8,0V52.55h3.25a4,4,0,0,0,0-8Z"/><path class="cls-6" d="M183.17,49.85h-2.57V47.28a3.17,3.17,0,0,0-6.34,0v2.57h-2.57a3.17,3.17,0,0,0,0,6.34h2.57v2.57a3.17,3.17,0,1,0,6.34,0V56.19h2.57a3.17,3.17,0,0,0,0-6.34Z"/><path class="cls-6" d="M153.15,219.79h-2.59v-2.59a3.19,3.19,0,0,0-6.38,0v2.59H141.6a3.19,3.19,0,0,0,0,6.38h2.59v2.59a3.19,3.19,0,1,0,6.38,0v-2.59h2.59a3.19,3.19,0,0,0,0-6.38Z"/><line class="cls-7" x1="31.55" y1="137.27" x2="100.67" y2="137.27"/><line class="cls-7" x1="105" y1="137.27" x2="109.19" y2="137.27"/><line class="cls-7" x1="23.42" y1="159.78" x2="87.34" y2="159.78"/><circle class="cls-6" cx="109.2" cy="196.85" r="3.33"/></g></g></g></svg>