<svg xmlns="http://www.w3.org/2000/svg" xmlns:xlink="http://www.w3.org/1999/xlink" viewBox="0 0 225.03 230.67"><defs><style>.cls-1{isolation:isolate;}.cls-2{opacity:0.4;mix-blend-mode:multiply;fill:url(#linear-gradient);}.cls-3{fill:#9faed0;}.cls-3,.cls-5{stroke:#212683;}.cls-3,.cls-4,.cls-5,.cls-8{stroke-miterlimit:10;stroke-width:6px;}.cls-4{fill:#a8dedb;stroke:#1f2687;}.cls-5{fill:#9dcc96;}.cls-6{fill:#1f268e;}.cls-7{fill:#212683;}.cls-8{fill:none;stroke:#1f268e;}</style><linearGradient id="linear-gradient" x1="1.59" y1="116.51" x2="225.03" y2="116.51" gradientUnits="userSpaceOnUse"><stop offset="0" stop-color="#efa6c2"/><stop offset="1" stop-color="#96cdbd"/></linearGradient></defs><title>Hot Machine</title><g class="cls-1"><g id="Layer_2" data-name="Layer 2"><g id="Layer_1-2" data-name="Layer 1"><path class="cls-2" d="M186.35,101.15A53.78,53.78,0,1,0,113.74,24.1a68.07,68.07,0,1,0-21.07,116,68.09,68.09,0,1,0,93.69-38.95Z"/><path class="cls-3" d="M146.55,35.58l21.82,6.22a32.34,32.34,0,0,1,19.86,16.27l30.08,58.33a9,9,0,0,1-4.59,12.49h0a9,9,0,0,1-11.59-4.46L179.62,77.32a32.33,32.33,0,0,0-20.36-17.16l-2.07-.59"/><path class="cls-4" d="M41.46,3.1a3.64,3.64,0,0,0-4.13,5.08A102.08,102.08,0,0,1,45.62,63.3c-4.5,37.5-29.5,74.5-9.5,129.5h126.5S178.09,75.88,143.5,31.24A20.28,20.28,0,0,0,132,23.89Z"/><rect class="cls-3" x="121.62" y="77.63" width="21" height="92.16" rx="10.5" ry="10.5"/><path class="cls-5" d="M72.62,219.54h96.13a5.49,5.49,0,0,0,4.6-8.48l-11.9-18.26H37.12L25.23,211.06a5.48,5.48,0,0,0,4.59,8.48H46"/><rect class="cls-6" x="78.95" y="203.37" width="40.67" height="5.59" rx="2.79" ry="2.79"/><path class="cls-7" d="M18.49,17H15.25V13.73a4,4,0,0,0-8,0V17H4a4,4,0,0,0,0,8H7.25v3.25a4,4,0,1,0,8,0V25h3.25a4,4,0,0,0,0-8Z"/><path class="cls-7" d="M180.6,7.91h-2.2V5.71a2.71,2.71,0,0,0-5.42,0v2.2h-2.2a2.71,2.71,0,0,0,0,5.42H173v2.2a2.71,2.71,0,1,0,5.42,0v-2.2h2.2a2.71,2.71,0,0,0,0-5.42Z"/><path class="cls-7" d="M195.47,185.46h-2.2v-2.2a2.71,2.71,0,0,0-5.42,0v2.2h-2.2a2.71,2.71,0,0,0,0,5.42h2.2v2.2a2.71,2.71,0,1,0,5.42,0v-2.2h2.2a2.71,2.71,0,0,0,0-5.42Z"/><circle class="cls-7" cx="59.25" cy="219.54" r="3.33"/><line class="cls-8" x1="67.95" y1="192.8" x2="67.95" y2="133.3"/><line class="cls-8" x1="67.95" y1="114.3" x2="67.95" y2="121.96"/></g></g></g></svg>