<svg xmlns="http://www.w3.org/2000/svg" xmlns:xlink="http://www.w3.org/1999/xlink" viewBox="0 0 244 215.72"><defs><style>.cls-1{isolation:isolate;}.cls-2{opacity:0.4;mix-blend-mode:multiply;fill:url(#linear-gradient);}.cls-3{fill:#9dcc96;}.cls-3,.cls-4,.cls-6{stroke:#212683;stroke-miterlimit:10;stroke-width:6px;}.cls-4{fill:#cec09f;}.cls-5{fill:#212683;}.cls-6{fill:none;}</style><linearGradient id="linear-gradient" x1="-264.02" y1="1195.01" x2="-10.15" y2="1195.01" gradientTransform="matrix(0.89, -0.46, 0.46, 0.89, -312.27, -1028.89)" gradientUnits="userSpaceOnUse"><stop offset="0" stop-color="#efa6c2"/><stop offset="1" stop-color="#96cdbd"/></linearGradient></defs><title>Hotel Sign</title><g class="cls-1"><g id="Layer_2" data-name="Layer 2"><g id="Layer_1-2" data-name="Layer 1"><path class="cls-2" d="M137.24,28.22a73,73,0,0,0-21.86,17.17c-.54-1.33-1.13-2.65-1.8-3.95A48.84,48.84,0,1,0,26.69,86.09c.18.34.37.68.55,1a73.25,73.25,0,1,0,118.52,75.13,73.25,73.25,0,1,0-8.52-134Z"/><path class="cls-3" d="M61.42,191.7v10.89a7.75,7.75,0,0,0,7.75,7.75h94.5a7.75,7.75,0,0,0,7.75-7.75V78.75A7.75,7.75,0,0,0,163.67,71H101A15.57,15.57,0,0,1,85.42,55.42V44.34a14.66,14.66,0,0,1,14.66-14.67h36a14.67,14.67,0,0,1,14.67,14.67,2.3,2.3,0,0,0,2,2.27l15.54,2.14a2.3,2.3,0,0,0,.37,0A2.78,2.78,0,0,0,171.42,46a43,43,0,0,0-43-43h-24a43,43,0,0,0-43,43V165"/><rect class="cls-4" x="83.58" y="107" width="65.67" height="72" rx="5.89" ry="5.89"/><path class="cls-5" d="M27,29.35H23.75V26.1a4,4,0,0,0-8,0v3.25H12.5a4,4,0,0,0,0,8h3.25V40.6a4,4,0,1,0,8,0V37.35H27a4,4,0,0,0,0-8Z"/><path class="cls-5" d="M18.49,194.78H15.25v-3.25a4,4,0,0,0-8,0v3.25H4a4,4,0,0,0,0,8H7.25V206a4,4,0,1,0,8,0v-3.25h3.25a4,4,0,0,0,0-8Z"/><path class="cls-5" d="M206.59,173.48H204v-2.57a3.16,3.16,0,0,0-6.32,0v2.57h-2.57a3.16,3.16,0,0,0,0,6.32h2.57v2.57a3.16,3.16,0,1,0,6.32,0V179.8h2.57a3.16,3.16,0,0,0,0-6.32Z"/><circle class="cls-5" cx="61.42" cy="178.12" r="3.33"/><line class="cls-6" x1="103.75" y1="107" x2="103.75" y2="143"/><line class="cls-6" x1="103.75" y1="148.67" x2="103.75" y2="156.17"/></g></g></g></svg>