<svg xmlns="http://www.w3.org/2000/svg" xmlns:xlink="http://www.w3.org/1999/xlink" viewBox="0 0 225.55 214.73"><defs><style>.cls-1{isolation:isolate;}.cls-2{opacity:0.4;mix-blend-mode:multiply;fill:url(#linear-gradient);}.cls-3{fill:#f2a7c5;}.cls-3,.cls-4{stroke:#1f2687;}.cls-3,.cls-4,.cls-5,.cls-6{stroke-miterlimit:10;stroke-width:6px;}.cls-4{fill:#a8dedb;}.cls-5{fill:#9dcc96;}.cls-5,.cls-6{stroke:#212683;}.cls-6{fill:none;}.cls-7{fill:#212683;}</style><linearGradient id="linear-gradient" x1="197.76" y1="627" x2="428.22" y2="627" gradientTransform="translate(600.61 627.53) rotate(163.57)" gradientUnits="userSpaceOnUse"><stop offset="0" stop-color="#efa6c2"/><stop offset="1" stop-color="#96cdbd"/></linearGradient></defs><title>Hotel</title><g class="cls-1"><g id="Layer_2" data-name="Layer 2"><g id="Layer_1-2" data-name="Layer 1"><path class="cls-2" d="M223.13,46.52A58.63,58.63,0,0,0,157.29,5.26a62.06,62.06,0,0,0-7,1.61,57.67,57.67,0,0,0-9.24,3.59C140,11,139,11.52,138,12.11a54.62,54.62,0,0,0-5.14,3.28,58.62,58.62,0,0,0-18.18,21.17A59.07,59.07,0,0,0,112.21,42c-.27.7-.53,1.41-.77,2.12a58.9,58.9,0,0,0-2,7.42c-.11.56-.22,1.12-.32,1.69a57.68,57.68,0,0,0-.83,10c0,.42,0,.86,0,1.29,0,.21,0,.42,0,.63-.13-.21-.26-.42-.4-.63-.25-.4-.52-.79-.79-1.18a58.35,58.35,0,0,0-8.65-10.06A57.74,57.74,0,0,0,92,48,57.09,57.09,0,0,0,80.9,42c-.88-.37-1.76-.71-2.66-1a58.53,58.53,0,0,0-10-2.59h0a57.61,57.61,0,0,0-15.76-.48A60.29,60.29,0,0,0,42.05,40,58.62,58.62,0,0,0,49,154a0,0,0,0,0,.05,0,54.44,54.44,0,0,0,5.72.68c0,.24,0,.48,0,.72a58.63,58.63,0,0,0,117.22,2.42c0-1.28,0-2.56,0-3.85a57.93,57.93,0,0,0-1.3-10.31c-.3-1.4-.66-2.79-1.07-4.19a58.47,58.47,0,0,0-4.14-10.33c0-.06-.06-.12-.08-.17a57.87,57.87,0,0,0-4.76-7.64c1,.11,2,.19,3,.25a59.58,59.58,0,0,0,7.67-.09c1.46-.09,2.9-.27,4.37-.49.13,0,.26,0,.39-.06a59.84,59.84,0,0,0,7.44-1.67,59.11,59.11,0,0,0,9-3.46A58.44,58.44,0,0,0,206.85,106a56.86,56.86,0,0,0,4.49-4.7,58.59,58.59,0,0,0,11.79-54.8Zm-105,51.14-.86-.07c0-1.12,0-2.25,0-3.38.64,1,1.31,2.06,2,3,.12.2.26.38.4.57Q118.88,97.72,118.1,97.66Z"/><path class="cls-3" d="M46.28,45.84h134.6a4.93,4.93,0,0,1,4.93,4.93V190.3a0,0,0,0,1,0,0H41.35a0,0,0,0,1,0,0V50.77A4.93,4.93,0,0,1,46.28,45.84Z"/><path class="cls-4" d="M74.22,13.24h78.72a7.69,7.69,0,0,1,7.69,7.69V45.84a0,0,0,0,1,0,0H66.52a0,0,0,0,1,0,0V20.93A7.69,7.69,0,0,1,74.22,13.24Z"/><path class="cls-5" d="M113.58,138.54h0a25.88,25.88,0,0,1,25.88,25.88V190.3a0,0,0,0,1,0,0H87.7a0,0,0,0,1,0,0V164.42A25.88,25.88,0,0,1,113.58,138.54Z"/><rect class="cls-5" x="59.22" y="61.57" width="14.59" height="14.59"/><rect class="cls-5" x="90.6" y="61.57" width="14.59" height="14.59"/><rect class="cls-5" x="121.97" y="61.57" width="14.59" height="14.59"/><rect class="cls-5" x="153.34" y="61.57" width="14.59" height="14.59"/><rect class="cls-5" x="59.22" y="96.41" width="14.59" height="14.59"/><rect class="cls-5" x="90.6" y="96.41" width="14.59" height="14.59"/><rect class="cls-5" x="121.97" y="96.41" width="14.59" height="14.59"/><rect class="cls-5" x="153.34" y="96.41" width="14.59" height="14.59"/><rect class="cls-5" x="59.22" y="131.25" width="14.59" height="14.59"/><rect class="cls-5" x="153.34" y="131.25" width="14.59" height="14.59"/><line class="cls-6" x1="113.58" y1="138.54" x2="113.58" y2="190.3"/><path class="cls-7" d="M84.21,22.94l.71,2.19a1.49,1.49,0,0,0,1.42,1h2.3a1.49,1.49,0,0,1,.87,2.69L87.65,30.2a1.49,1.49,0,0,0-.54,1.66L87.82,34a1.49,1.49,0,0,1-2.29,1.66l-1.86-1.35a1.49,1.49,0,0,0-1.75,0l-1.86,1.35A1.49,1.49,0,0,1,77.77,34l.71-2.19a1.49,1.49,0,0,0-.54-1.66l-1.86-1.35A1.49,1.49,0,0,1,77,26.16h2.3a1.49,1.49,0,0,0,1.42-1l.71-2.19A1.49,1.49,0,0,1,84.21,22.94Z"/><path class="cls-7" d="M104.73,22.94l.71,2.19a1.49,1.49,0,0,0,1.42,1h2.3a1.49,1.49,0,0,1,.87,2.69l-1.86,1.35a1.49,1.49,0,0,0-.54,1.66l.71,2.19a1.49,1.49,0,0,1-2.29,1.66l-1.86-1.35a1.49,1.49,0,0,0-1.75,0l-1.86,1.35A1.49,1.49,0,0,1,98.29,34L99,31.86a1.49,1.49,0,0,0-.54-1.66L96.6,28.85a1.49,1.49,0,0,1,.87-2.69h2.3a1.49,1.49,0,0,0,1.42-1l.71-2.19A1.49,1.49,0,0,1,104.73,22.94Z"/><path class="cls-7" d="M125.25,22.94l.71,2.19a1.49,1.49,0,0,0,1.42,1h2.3a1.49,1.49,0,0,1,.87,2.69l-1.86,1.35a1.49,1.49,0,0,0-.54,1.66l.71,2.19a1.49,1.49,0,0,1-2.29,1.66l-1.86-1.35a1.49,1.49,0,0,0-1.75,0l-1.86,1.35A1.49,1.49,0,0,1,118.81,34l.71-2.19A1.49,1.49,0,0,0,119,30.2l-1.86-1.35a1.49,1.49,0,0,1,.87-2.69h2.3a1.49,1.49,0,0,0,1.42-1l.71-2.19A1.49,1.49,0,0,1,125.25,22.94Z"/><path class="cls-7" d="M145.77,22.94l.71,2.19a1.49,1.49,0,0,0,1.42,1h2.3a1.49,1.49,0,0,1,.87,2.69l-1.86,1.35a1.49,1.49,0,0,0-.54,1.66l.71,2.19a1.49,1.49,0,0,1-2.29,1.66l-1.86-1.35a1.49,1.49,0,0,0-1.75,0l-1.86,1.35A1.49,1.49,0,0,1,139.33,34l.71-2.19a1.49,1.49,0,0,0-.54-1.66l-1.86-1.35a1.49,1.49,0,0,1,.87-2.69h2.3a1.49,1.49,0,0,0,1.42-1l.71-2.19A1.49,1.49,0,0,1,145.77,22.94Z"/><path class="cls-4" d="M75.09,205.41H198.53a7.56,7.56,0,1,0,0-15.11H28.15a7.56,7.56,0,1,0,0,15.11H48.42"/><path class="cls-7" d="M32.15,10.07H29.58V7.5a3.17,3.17,0,0,0-6.34,0v2.57H20.67a3.17,3.17,0,0,0,0,6.34h2.57V19a3.17,3.17,0,1,0,6.34,0V16.41h2.57a3.17,3.17,0,0,0,0-6.34Z"/><path class="cls-7" d="M217.74,135.38h-2.57V132.8a3.17,3.17,0,0,0-6.34,0v2.57h-2.57a3.17,3.17,0,0,0,0,6.34h2.57v2.57a3.17,3.17,0,1,0,6.34,0v-2.57h2.57a3.17,3.17,0,0,0,0-6.34Z"/><path class="cls-7" d="M203.94,3.89h-1.74V2.15a2.15,2.15,0,0,0-4.3,0V3.89h-1.74a2.15,2.15,0,0,0,0,4.3h1.74V9.93a2.15,2.15,0,1,0,4.3,0V8.19h1.74a2.15,2.15,0,0,0,0-4.3Z"/><circle class="cls-7" cx="62.09" cy="205.41" r="3.33"/><line class="cls-6" x1="42.75" y1="164.42" x2="63.75" y2="164.42"/><line class="cls-6" x1="68.75" y1="164.42" x2="73.82" y2="164.42"/><line class="cls-6" x1="41.35" y1="179.75" x2="58.75" y2="179.75"/></g></g></g></svg>