<svg xmlns="http://www.w3.org/2000/svg" xmlns:xlink="http://www.w3.org/1999/xlink" viewBox="0 0 204.39 228.36"><defs><style>.cls-1{isolation:isolate;}.cls-2{opacity:0.4;mix-blend-mode:multiply;fill:url(#linear-gradient);}.cls-3{fill:#f2a7c5;}.cls-4{fill:#cec09f;}.cls-4,.cls-5,.cls-6{stroke:#212683;stroke-miterlimit:10;stroke-width:6px;}.cls-5{fill:#9dcc96;}.cls-6{fill:none;}.cls-7{fill:#212683;}</style><linearGradient id="linear-gradient" y1="114.18" x2="204.39" y2="114.18" gradientUnits="userSpaceOnUse"><stop offset="0" stop-color="#efa6c2"/><stop offset="1" stop-color="#96cdbd"/></linearGradient></defs><title>Location</title><g class="cls-1"><g id="Layer_2" data-name="Layer 2"><g id="Layer_1-2" data-name="Layer 1"><path class="cls-2" d="M147.7,95a56.58,56.58,0,0,0-19.12,3.31,67.89,67.89,0,1,0-100,24.92,56.69,56.69,0,1,0,81.52,70.85A56.68,56.68,0,1,0,147.7,95Z"/><ellipse class="cls-3" cx="89.58" cy="185.25" rx="66" ry="24.84"/><path class="cls-4" d="M153.09,72.1a63.5,63.5,0,1,0-112.2,40.73c17,20.25,32.68,41.51,45.89,64.39l2.81,4.87,2.62-4.54c13-22.46,27.69-43.95,44.9-63.35A63.21,63.21,0,0,0,153.09,72.1Z"/><circle class="cls-5" cx="89.58" cy="72.77" r="44.24"/><path class="cls-6" d="M76.45,160.41h0C45.4,162.7,22,173,22,185.27s23.31,22.52,54.25,24.83"/><path class="cls-6" d="M102.59,160.41c31.1,2.26,54.57,12.54,54.57,24.86s-23.31,22.52-54.24,24.83"/><path class="cls-7" d="M103.28,55.36A3.74,3.74,0,0,0,96.9,58v7.09a3.73,3.73,0,0,1-3.73,3.74H86a3.74,3.74,0,0,1-3.74-3.74V58a3.73,3.73,0,0,0-7.47,0V87.53a3.73,3.73,0,1,0,7.47,0V78.82A3.74,3.74,0,0,1,86,75.09h7.17a3.73,3.73,0,0,1,3.73,3.73v8.71a3.73,3.73,0,1,0,7.47,0V58A3.75,3.75,0,0,0,103.28,55.36Z"/><path class="cls-7" d="M182.11,17.14h-2.95V14.19a3.63,3.63,0,0,0-7.26,0v2.95h-2.95a3.63,3.63,0,0,0,0,7.26h2.95v2.95a3.63,3.63,0,1,0,7.26,0V24.4h2.95a3.63,3.63,0,0,0,0-7.26Z"/><path class="cls-7" d="M19.83,132.34H18.08v-1.76a2.17,2.17,0,0,0-4.33,0v1.76H12a2.17,2.17,0,0,0,0,4.33h1.76v1.76a2.17,2.17,0,1,0,4.33,0v-1.76h1.76a2.17,2.17,0,0,0,0-4.33Z"/><path class="cls-7" d="M161.13,133.95h-2.48v-2.48a3.06,3.06,0,0,0-6.11,0v2.48H150a3.06,3.06,0,0,0,0,6.11h2.48v2.48a3.06,3.06,0,1,0,6.11,0v-2.48h2.48a3.06,3.06,0,0,0,0-6.11Z"/><circle class="cls-7" cx="89.58" cy="210.1" r="3.33"/><line class="cls-6" x1="57.05" y1="163.05" x2="57.05" y2="185.25"/><line class="cls-6" x1="57.05" y1="189.6" x2="57.05" y2="196.1"/></g></g></g></svg>