<svg xmlns="http://www.w3.org/2000/svg" xmlns:xlink="http://www.w3.org/1999/xlink" viewBox="0 0 232.89 242.6"><defs><style>.cls-1{isolation:isolate;}.cls-2{opacity:0.4;mix-blend-mode:multiply;fill:url(#linear-gradient);}.cls-3{fill:#f2a7c5;stroke:#1f2687;}.cls-3,.cls-4,.cls-5{stroke-miterlimit:10;stroke-width:6px;}.cls-4{fill:none;stroke:#1f268e;}.cls-5{fill:#9faed0;stroke:#212683;}.cls-6{fill:#1f268e;}.cls-7{fill:#212683;}</style><linearGradient id="linear-gradient" x1="-1094.11" y1="-841.48" x2="-889.72" y2="-841.48" gradientTransform="translate(1027.06 -819.48) rotate(-86.2)" gradientUnits="userSpaceOnUse"><stop offset="0" stop-color="#efa6c2"/><stop offset="1" stop-color="#96cdbd"/></linearGradient></defs><title>Safe Box</title><g class="cls-1"><g id="Layer_2" data-name="Layer 2"><g id="Layer_1-2" data-name="Layer 1"><path class="cls-2" d="M105.62,67.87a56.58,56.58,0,0,0,2,19.29A67.89,67.89,0,1,0,125.9,188.61,56.69,56.69,0,1,0,202,112a56.68,56.68,0,1,0-96.37-44.1Z"/><rect class="cls-3" x="25.73" y="41.99" width="201.48" height="160.29" rx="12.6" ry="12.6"/><line class="cls-4" x1="198.85" y1="135.93" x2="198.85" y2="108.35"/><polyline class="cls-4" points="198.86 84.01 198.86 84 198.86 67.39 54.1 67.39 54.1 82.84"/><polyline class="cls-4" points="54.1 109.51 54.1 176.89 198.86 176.89 198.86 160.28 198.86 160.27"/><rect class="cls-5" x="79.4" y="92.53" width="94.14" height="59.21"/><circle class="cls-6" cx="103.24" cy="122.14" r="9.84"/><rect class="cls-6" x="128.46" y="105.14" width="6.24" height="6.24" rx="1.37" ry="1.37"/><rect class="cls-6" x="141.38" y="105.14" width="6.24" height="6.24" rx="1.37" ry="1.37"/><rect class="cls-6" x="154.3" y="105.14" width="6.24" height="6.24" rx="1.37" ry="1.37"/><rect class="cls-6" x="128.46" y="119.02" width="6.24" height="6.24" rx="1.37" ry="1.37"/><rect class="cls-6" x="141.38" y="119.02" width="6.24" height="6.24" rx="1.37" ry="1.37"/><rect class="cls-6" x="154.3" y="119.02" width="6.24" height="6.24" rx="1.37" ry="1.37"/><rect class="cls-6" x="128.46" y="132.89" width="6.24" height="6.24" rx="1.37" ry="1.37"/><rect class="cls-6" x="141.38" y="132.89" width="6.24" height="6.24" rx="1.37" ry="1.37"/><rect class="cls-6" x="154.3" y="132.89" width="6.24" height="6.24" rx="1.37" ry="1.37"/><rect class="cls-5" x="191.12" y="84" width="15.47" height="24.34" rx="3.45" ry="3.45"/><rect class="cls-5" x="191.12" y="135.93" width="15.47" height="24.34" rx="3.45" ry="3.45"/><rect class="cls-5" x="43.81" y="202.28" width="20.57" height="20.57"/><rect class="cls-5" x="193.4" y="202.28" width="20.57" height="20.57"/><path class="cls-7" d="M18.49,26.75H15.25V23.5a4,4,0,0,0-8,0v3.25H4a4,4,0,0,0,0,8H7.25V38a4,4,0,1,0,8,0V34.75h3.25a4,4,0,0,0,0-8Z"/><path class="cls-7" d="M203.64,6.28h-2.82V3.47a3.47,3.47,0,0,0-6.94,0V6.28h-2.82a3.47,3.47,0,0,0,0,6.93h2.82V16a3.47,3.47,0,1,0,6.94,0V13.22h2.82a3.47,3.47,0,0,0,0-6.93Z"/><path class="cls-7" d="M174.83,232.27h-2.2v-2.2a2.71,2.71,0,0,0-5.42,0v2.2H165a2.71,2.71,0,0,0,0,5.42h2.2v2.2a2.71,2.71,0,1,0,5.42,0v-2.2h2.2a2.71,2.71,0,0,0,0-5.42Z"/><circle class="cls-7" cx="54.1" cy="96.76" r="3.33"/><line class="cls-4" x1="65.88" y1="67.39" x2="65.88" y2="119.02"/><line class="cls-4" x1="65.88" y1="123.61" x2="65.88" y2="129.61"/></g></g></g></svg>