<svg xmlns="http://www.w3.org/2000/svg" xmlns:xlink="http://www.w3.org/1999/xlink" viewBox="0 0 229.58 228.77"><defs><style>.cls-1{isolation:isolate;}.cls-2{opacity:0.4;mix-blend-mode:multiply;fill:url(#linear-gradient);}.cls-3{fill:#cec09f;}.cls-3,.cls-4{stroke:#212683;stroke-miterlimit:10;stroke-width:6px;}.cls-4{fill:none;}.cls-5{fill:#212683;}</style><linearGradient id="linear-gradient" x1="-1781" y1="-102.76" x2="-1573.4" y2="-102.76" gradientTransform="translate(1248.83 1356.11) rotate(43.53)" gradientUnits="userSpaceOnUse"><stop offset="0" stop-color="#efa6c2"/><stop offset="1" stop-color="#96cdbd"/></linearGradient></defs><title>Sandals</title><g class="cls-1"><g id="Layer_2" data-name="Layer 2"><g id="Layer_1-2" data-name="Layer 1"><path class="cls-2" d="M210.55,164.53a69.19,69.19,0,0,0-34-114.94A69.2,69.2,0,1,0,46.13,95.34a69.2,69.2,0,1,0,91.18,86.77A69.2,69.2,0,0,0,210.55,164.53Z"/><path class="cls-3" d="M89.77,108.19c0-32.28-19.42-58.44-43.38-58.44S3,75.91,3,108.19a76,76,0,0,0,3.31,22.41,98.76,98.76,0,0,1,4,33.3q-.06,1.36-.06,2.74c0,26.89,16.18,48.7,36.15,48.7s36.15-21.8,36.15-48.7q0-1.38-.06-2.74a98.76,98.76,0,0,1,4-33.3A76,76,0,0,0,89.77,108.19Z"/><path class="cls-4" d="M89.77,124.34l-1.52-.81-14-7.39a58.06,58.06,0,0,0-14.57-5.38"/><path class="cls-4" d="M4.69,124.34l14-7.74A58,58,0,0,1,33.05,111"/><path class="cls-3" d="M217.44,108.19c0-32.28-19.42-58.44-43.38-58.44s-43.38,26.17-43.38,58.44A76,76,0,0,0,134,130.59a98.76,98.76,0,0,1,4,33.3q-.06,1.36-.06,2.74c0,26.89,16.18,48.7,36.15,48.7s36.15-21.8,36.15-48.7q0-1.38-.06-2.74a98.76,98.76,0,0,1,4-33.3A76,76,0,0,0,217.44,108.19Z"/><path class="cls-4" d="M132.37,124.34l14-7.73a58.45,58.45,0,0,1,55.57-.46l15.48,8.2"/><path class="cls-5" d="M185.45,15.57h-2.57V13a3.17,3.17,0,0,0-6.34,0v2.57H174a3.17,3.17,0,0,0,0,6.34h2.57v2.57a3.17,3.17,0,1,0,6.34,0V21.91h2.57a3.17,3.17,0,0,0,0-6.34Z"/><path class="cls-5" d="M24.61,15.57H22V13a3.17,3.17,0,0,0-6.34,0v2.57H13.13a3.17,3.17,0,0,0,0,6.34H15.7v2.57a3.17,3.17,0,1,0,6.34,0V21.91h2.57a3.17,3.17,0,0,0,0-6.34Z"/><path class="cls-5" d="M108.09,198.6h-2.26v-2.26a2.79,2.79,0,0,0-5.58,0v2.26H98a2.79,2.79,0,0,0,0,5.58h2.26v2.26a2.79,2.79,0,1,0,5.58,0v-2.26h2.26a2.79,2.79,0,0,0,0-5.58Z"/><circle class="cls-5" cx="47.32" cy="109.35" r="3.33"/><line class="cls-4" x1="35.53" y1="213.09" x2="35.53" y2="159.82"/><line class="cls-4" x1="35.53" y1="145.32" x2="35.53" y2="155.07"/><line class="cls-4" x1="165.21" y1="213.09" x2="165.21" y2="159.82"/><line class="cls-4" x1="165.21" y1="145.32" x2="165.21" y2="155.07"/></g></g></g></svg>