<svg xmlns="http://www.w3.org/2000/svg" xmlns:xlink="http://www.w3.org/1999/xlink" viewBox="0 0 219.75 235.99"><defs><style>.cls-1{isolation:isolate;}.cls-2{opacity:0.4;mix-blend-mode:multiply;fill:url(#linear-gradient);}.cls-3{fill:#cec09f;}.cls-3,.cls-5,.cls-8{stroke:#212683;}.cls-3,.cls-4,.cls-5,.cls-7,.cls-8{stroke-miterlimit:10;stroke-width:6px;}.cls-4{fill:#a8dedb;stroke:#1f2687;}.cls-5{fill:#9faed0;}.cls-6{fill:#212683;}.cls-7,.cls-8{fill:none;}.cls-7{stroke:#1f268e;}</style><linearGradient id="linear-gradient" x1="8.49" y1="118" x2="210.2" y2="118" gradientUnits="userSpaceOnUse"><stop offset="0" stop-color="#efa6c2"/><stop offset="1" stop-color="#96cdbd"/></linearGradient></defs><title>Sofa</title><g class="cls-1"><g id="Layer_2" data-name="Layer 2"><g id="Layer_1-2" data-name="Layer 1"><path class="cls-2" d="M176.61,82A50.06,50.06,0,1,0,88.29,44.94,70.78,70.78,0,0,0,60.1,183.28c0,.88-.07,1.76-.07,2.65a50.06,50.06,0,1,0,99.67-6.6h.45A50.06,50.06,0,0,0,176.61,82Z"/><path class="cls-3" d="M198.4,87.57a18,18,0,0,0-17.06,18.11v35.88H38.4V105.68A18,18,0,0,0,21.35,87.57,17.7,17.7,0,0,0,3,105.26v54a14.16,14.16,0,0,0,14.16,14.16H202.59a14.16,14.16,0,0,0,14.16-14.16v-54A17.7,17.7,0,0,0,198.4,87.57Z"/><path class="cls-4" d="M123.21,51.3h19.13a39.24,39.24,0,0,1,39.23,39.23v51H38.18v-51A39.24,39.24,0,0,1,77.41,51.3H96.54"/><rect class="cls-5" x="27.56" y="173.42" width="19.47" height="14.16"/><rect class="cls-5" x="172.72" y="173.42" width="19.47" height="14.16"/><path class="cls-6" d="M41.46,29.31H38.21V26.06a4,4,0,0,0-8,0v3.25H27a4,4,0,0,0,0,8h3.25v3.25a4,4,0,1,0,8,0V37.31h3.25a4,4,0,0,0,0-8Z"/><path class="cls-6" d="M185.61,10.56h-2.68V7.88a3.31,3.31,0,0,0-6.61,0v2.68h-2.68a3.31,3.31,0,0,0,0,6.61h2.68v2.68a3.31,3.31,0,1,0,6.61,0V17.17h2.68a3.31,3.31,0,0,0,0-6.61Z"/><path class="cls-6" d="M140.63,202h-2.4v-2.4a3,3,0,0,0-5.91,0V202h-2.4a3,3,0,0,0,0,5.91h2.4v2.4a3,3,0,1,0,5.91,0v-2.4h2.4a3,3,0,0,0,0-5.91Z"/><circle class="cls-6" cx="109.88" cy="51.3" r="3.33"/><line class="cls-7" x1="3" y1="156.76" x2="101" y2="156.76"/><line class="cls-7" x1="109.88" y1="156.76" x2="125.75" y2="156.76"/><line class="cls-8" x1="72.24" y1="51.65" x2="72.24" y2="98.43"/><line class="cls-8" x1="72.24" y1="103.43" x2="72.24" y2="113.76"/></g></g></g></svg>