<svg xmlns="http://www.w3.org/2000/svg" xmlns:xlink="http://www.w3.org/1999/xlink" viewBox="0 0 258.96 215.19"><defs><style>.cls-1{isolation:isolate;}.cls-2{opacity:0.4;mix-blend-mode:multiply;fill:url(#linear-gradient);}.cls-3{fill:#a8dedb;}.cls-4{fill:none;stroke:#1f268e;}.cls-4,.cls-5{stroke-miterlimit:10;stroke-width:6px;}.cls-5{fill:#cec09f;stroke:#212683;}.cls-6{fill:#212683;}</style><linearGradient id="linear-gradient" x1="547.87" y1="-395.8" x2="771.3" y2="-395.8" gradientTransform="translate(-97.75 865.02) rotate(-42)" gradientUnits="userSpaceOnUse"><stop offset="0" stop-color="#efa6c2"/><stop offset="1" stop-color="#96cdbd"/></linearGradient></defs><title>Telephone</title><g class="cls-1"><g id="Layer_2" data-name="Layer 2"><g id="Layer_1-2" data-name="Layer 1"><path class="cls-2" d="M171.63,69.25A53.78,53.78,0,1,0,66.11,60.56a68.07,68.07,0,1,0,62,100.32,68.09,68.09,0,1,0,43.57-91.63Z"/><rect class="cls-3" x="36.42" y="36.32" width="186.59" height="130.88" rx="10.77" ry="10.77"/><path class="cls-4" d="M63.68,35.2h-12a12,12,0,0,0-12,12V155.24a12,12,0,0,0,12,12H169.34"/><path class="cls-4" d="M110.34,35.2H211a12,12,0,0,1,12,12V155.24a12,12,0,0,1-12,12H196"/><rect class="cls-5" x="131.38" y="64.53" width="70.29" height="18"/><rect class="cls-5" x="63.67" y="16.53" width="46.67" height="120.67" rx="14.33" ry="14.33"/><rect class="cls-5" x="133.34" y="96.2" width="13.67" height="13.67"/><rect class="cls-5" x="159.69" y="96.2" width="13.67" height="13.67"/><rect class="cls-5" x="186.05" y="96.2" width="13.67" height="13.67"/><rect class="cls-5" x="133.34" y="130.37" width="13.67" height="13.67"/><rect class="cls-5" x="159.69" y="130.37" width="13.67" height="13.67"/><rect class="cls-5" x="186.05" y="130.37" width="13.67" height="13.67"/><path class="cls-6" d="M42.78,13H39.93V10.17a3.51,3.51,0,0,0-7,0V13H30.06a3.51,3.51,0,0,0,0,7h2.85v2.85a3.51,3.51,0,1,0,7,0V20h2.85a3.51,3.51,0,0,0,0-7Z"/><path class="cls-6" d="M217.9,6.36h-2.85V3.51a3.51,3.51,0,0,0-7,0V6.36h-2.85a3.51,3.51,0,0,0,0,7H208v2.85a3.51,3.51,0,1,0,7,0V13.38h2.85a3.51,3.51,0,0,0,0-7Z"/><path class="cls-6" d="M127.78,206.12h-1.93v-1.93a2.38,2.38,0,0,0-4.76,0v1.93h-1.93a2.38,2.38,0,0,0,0,4.76h1.93v1.93a2.38,2.38,0,1,0,4.76,0v-1.93h1.93a2.38,2.38,0,0,0,0-4.76Z"/><circle class="cls-6" cx="183.21" cy="167.2" r="3.33"/><line class="cls-4" x1="96.01" y1="16.53" x2="96.01" y2="93.53"/><line class="cls-4" x1="96.01" y1="98.2" x2="96.01" y2="105.53"/><line class="cls-4" x1="223.01" y1="50.87" x2="169.34" y2="50.87"/><line class="cls-4" x1="153.26" y1="50.87" x2="160.76" y2="50.87"/></g></g></g></svg>