<svg xmlns="http://www.w3.org/2000/svg" xmlns:xlink="http://www.w3.org/1999/xlink" viewBox="0 0 223.19 202.53"><defs><style>.cls-1{isolation:isolate;}.cls-2{opacity:0.4;mix-blend-mode:multiply;fill:url(#linear-gradient);}.cls-3{fill:#f2a7c5;stroke:#1f2687;}.cls-3,.cls-4,.cls-5{stroke-miterlimit:10;stroke-width:6px;}.cls-4{fill:none;stroke:#1f268e;}.cls-5{fill:#9faed0;stroke:#212683;}.cls-6{fill:#1f268e;}.cls-7{fill:#212683;}</style><linearGradient id="linear-gradient" x1="689.9" y1="539.25" x2="920.36" y2="539.25" gradientTransform="translate(-429.59 -704.91) rotate(21.29)" gradientUnits="userSpaceOnUse"><stop offset="0" stop-color="#efa6c2"/><stop offset="1" stop-color="#96cdbd"/></linearGradient></defs><title>Televeision</title><g class="cls-1"><g id="Layer_2" data-name="Layer 2"><g id="Layer_1-2" data-name="Layer 1"><path class="cls-2" d="M207.58,104.06l0,0a54,54,0,0,0-4.11-4l.45-.57a59.53,59.53,0,0,0,3.66-5.18A58.63,58.63,0,0,0,112.63,25.8c-.82,1-1.6,2-2.35,3a57.68,57.68,0,0,0-5.28,9c-.62,1.29-1.19,2.61-1.72,4a58.08,58.08,0,0,0-3,10.7,1.29,1.29,0,0,0,0,.19,57.78,57.78,0,0,0-.91,9c-.73-.7-1.47-1.38-2.24-2a58.45,58.45,0,0,0-6.12-4.63c-1.21-.81-2.46-1.56-3.75-2.28l-.35-.19a59,59,0,0,0-6.91-3.23A58.33,58.33,0,0,0,53.3,45.47a57.61,57.61,0,0,0-6.43,1,58.62,58.62,0,0,0-16,109.06,60.83,60.83,0,0,0,6.49,3,58.55,58.55,0,0,0,9.51,2.81,58.7,58.7,0,0,0,44-8.5,58.24,58.24,0,0,0,14.17-13.14c.39-.5.77-1,1.15-1.54-.07.72-.13,1.44-.16,2.16a58.6,58.6,0,0,0,27.68,53.5,59.6,59.6,0,0,0,9.53,4.74,58.62,58.62,0,0,0,64.3-94.45ZM117,109.63c.13-1.21.22-2.43.25-3.64q0-.34,0-.69c.37.36.76.72,1.14,1.07l.64.58C118.32,107.82,117.63,108.71,117,109.63Z"/><path class="cls-3" d="M122.57,43.28h73.62A5.83,5.83,0,0,1,202,49.11V153.39a5.83,5.83,0,0,1-5.83,5.83H22.28a5.83,5.83,0,0,1-5.83-5.83V49.11a5.83,5.83,0,0,1,5.83-5.83H95.9"/><line class="cls-4" x1="16.45" y1="131.07" x2="202.02" y2="131.07"/><rect class="cls-5" x="71.63" y="159.21" width="75.22" height="34.03"/><line class="cls-4" x1="27.82" y1="193.24" x2="190.65" y2="193.24"/><circle class="cls-6" cx="109.24" cy="144.26" r="5.89"/><path class="cls-7" d="M42,7.25H38.77V4a4,4,0,0,0-8,0V7.25H27.53a4,4,0,0,0,0,8h3.25v3.25a4,4,0,1,0,8,0V15.25H42a4,4,0,0,0,0-8Z"/><path class="cls-7" d="M201.21,6.31h-2.83V3.48a3.48,3.48,0,0,0-7,0V6.31h-2.83a3.48,3.48,0,0,0,0,7h2.83V16.1a3.48,3.48,0,1,0,7,0V13.27h2.83a3.48,3.48,0,0,0,0-7Z"/><path class="cls-7" d="M212.81,175h-2.34V172.7a2.88,2.88,0,0,0-5.75,0V175h-2.34a2.88,2.88,0,0,0,0,5.75h2.34v2.34a2.88,2.88,0,1,0,5.75,0v-2.34h2.34a2.88,2.88,0,0,0,0-5.75Z"/><circle class="cls-7" cx="109.24" cy="42.76" r="3.33"/><line class="cls-4" x1="16.45" y1="72.76" x2="120.35" y2="72.76"/><line class="cls-4" x1="16.45" y1="107.76" x2="57.35" y2="107.76"/><line class="cls-4" x1="63.35" y1="107.76" x2="68.4" y2="107.76"/></g></g></g></svg>