<svg xmlns="http://www.w3.org/2000/svg" xmlns:xlink="http://www.w3.org/1999/xlink" viewBox="0 0 225.5 233.83"><defs><style>.cls-1{isolation:isolate;}.cls-2{opacity:0.4;mix-blend-mode:multiply;fill:url(#linear-gradient);}.cls-3,.cls-5{fill:#9dcc96;}.cls-4{fill:#9faed0;}.cls-4,.cls-5{stroke:#212683;}.cls-4,.cls-5,.cls-6{stroke-miterlimit:10;stroke-width:6px;}.cls-6{fill:none;stroke:#1f268e;}.cls-7{fill:#1f268e;}.cls-8{fill:#212683;}</style><linearGradient id="linear-gradient" y1="120.34" x2="195.99" y2="120.34" gradientUnits="userSpaceOnUse"><stop offset="0" stop-color="#efa6c2"/><stop offset="1" stop-color="#96cdbd"/></linearGradient></defs><title>Towel</title><g class="cls-1"><g id="Layer_2" data-name="Layer 2"><g id="Layer_1-2" data-name="Layer 1"><path class="cls-2" d="M196,71.44a64.61,64.61,0,0,0-122.81-28A48.35,48.35,0,1,0,37.5,132a78.05,78.05,0,1,0,141.16-16.56A64.35,64.35,0,0,0,196,71.44Z"/><path class="cls-3" d="M173.16,43h22.53a0,0,0,0,1,0,0v89a18.36,18.36,0,0,1-18.36,18.36h-4.17a0,0,0,0,1,0,0V43A0,0,0,0,1,173.16,43Z"/><path class="cls-4" d="M34.54,65.33h-16a7,7,0,0,1-7-7V55.91a7,7,0,0,1,7-7H37.38"/><path class="cls-4" d="M173.79,48.93h41.74a7,7,0,0,1,7,7v2.45a7,7,0,0,1-7,7H173.79"/><path class="cls-5" d="M128,204.75H52.9a18.36,18.36,0,0,1-18.35-18.36V58.74A18.35,18.35,0,0,1,52.9,40.38H173.79V194.8a9.94,9.94,0,0,1-9.94,9.95h-9.14"/><path class="cls-6" d="M172,150.31h12.63a11.63,11.63,0,0,0,11.63-11.63V65.33"/><path class="cls-6" d="M172.59,41.39a14.27,14.27,0,0,1,5.29-1h4.8a14.17,14.17,0,0,1,13,8.55"/><rect class="cls-6" x="35.17" y="127.1" width="137.99" height="34.2"/><polyline class="cls-6" points="173.79 84.27 196.27 84.27 196.27 118.47 173.79 118.47"/><path class="cls-7" d="M57.33,137.67l.37,1.14a2.19,2.19,0,0,0,2.09,1.52H61a2.19,2.19,0,0,1,1.29,4l-1,.7a2.19,2.19,0,0,0-.8,2.45l.37,1.14A2.19,2.19,0,0,1,57.51,151l-1-.7a2.19,2.19,0,0,0-2.58,0l-1,.7a2.19,2.19,0,0,1-3.38-2.45l.37-1.14a2.19,2.19,0,0,0-.8-2.45l-1-.7a2.19,2.19,0,0,1,1.29-4h1.2a2.19,2.19,0,0,0,2.09-1.52l.37-1.14A2.19,2.19,0,0,1,57.33,137.67Z"/><path class="cls-7" d="M90.49,137.67l.37,1.14a2.19,2.19,0,0,0,2.09,1.52h1.2a2.19,2.19,0,0,1,1.29,4l-1,.7a2.19,2.19,0,0,0-.8,2.45l.37,1.14A2.19,2.19,0,0,1,90.66,151l-1-.7a2.19,2.19,0,0,0-2.58,0l-1,.7a2.19,2.19,0,0,1-3.38-2.45l.37-1.14a2.19,2.19,0,0,0-.8-2.45l-1-.7a2.19,2.19,0,0,1,1.29-4h1.2a2.19,2.19,0,0,0,2.09-1.52l.37-1.14A2.19,2.19,0,0,1,90.49,137.67Z"/><path class="cls-7" d="M123.64,137.67l.37,1.14a2.19,2.19,0,0,0,2.09,1.52h1.2a2.19,2.19,0,0,1,1.29,4l-1,.7a2.19,2.19,0,0,0-.8,2.45l.37,1.14a2.19,2.19,0,0,1-3.38,2.45l-1-.7a2.19,2.19,0,0,0-2.58,0l-1,.7a2.19,2.19,0,0,1-3.38-2.45l.37-1.14a2.19,2.19,0,0,0-.8-2.45l-1-.7a2.19,2.19,0,0,1,1.29-4H117a2.19,2.19,0,0,0,2.09-1.52l.37-1.14A2.19,2.19,0,0,1,123.64,137.67Z"/><path class="cls-7" d="M156.8,137.67l.37,1.14a2.19,2.19,0,0,0,2.09,1.52h1.2a2.19,2.19,0,0,1,1.29,4l-1,.7a2.19,2.19,0,0,0-.8,2.45l.37,1.14A2.19,2.19,0,0,1,157,151l-1-.7a2.19,2.19,0,0,0-2.58,0l-1,.7a2.19,2.19,0,0,1-3.38-2.45l.37-1.14a2.19,2.19,0,0,0-.8-2.45l-1-.7a2.19,2.19,0,0,1,1.29-4h1.2a2.19,2.19,0,0,0,2.09-1.52l.37-1.14A2.19,2.19,0,0,1,156.8,137.67Z"/><path class="cls-8" d="M217.55,173.46H215v-2.57a3.17,3.17,0,0,0-6.34,0v2.57h-2.57a3.17,3.17,0,0,0,0,6.34h2.57v2.57a3.17,3.17,0,1,0,6.34,0V179.8h2.57a3.17,3.17,0,0,0,0-6.34Z"/><path class="cls-8" d="M25,201.58H22.44V199a3.17,3.17,0,0,0-6.34,0v2.57H13.53a3.17,3.17,0,0,0,0,6.34H16.1v2.57a3.17,3.17,0,1,0,6.34,0v-2.57H25a3.17,3.17,0,0,0,0-6.34Z"/><path class="cls-8" d="M102.08,3.89h-1.74V2.15a2.15,2.15,0,0,0-4.3,0V3.89H94.3a2.15,2.15,0,0,0,0,4.3H96V9.93a2.15,2.15,0,1,0,4.3,0V8.19h1.74a2.15,2.15,0,0,0,0-4.3Z"/><circle class="cls-8" cx="141.62" cy="204.75" r="3.33"/><line class="cls-6" x1="35.17" y1="89.24" x2="118.79" y2="89.24"/><line class="cls-6" x1="35.17" y1="111.24" x2="91.54" y2="111.24"/><line class="cls-6" x1="96.34" y1="111.24" x2="105.79" y2="111.24"/></g></g></g></svg>