<svg xmlns="http://www.w3.org/2000/svg" xmlns:xlink="http://www.w3.org/1999/xlink" viewBox="0 0 217.83 217.31"><defs><style>.cls-1{isolation:isolate;}.cls-2{opacity:0.4;mix-blend-mode:multiply;fill:url(#linear-gradient);}.cls-3{fill:#cec09f;}.cls-3,.cls-4,.cls-7{stroke:#212683;stroke-miterlimit:10;stroke-width:6px;}.cls-4{fill:#9faed0;}.cls-5{fill:#1f268e;}.cls-6{fill:#212683;}.cls-7{fill:none;}</style><linearGradient id="linear-gradient" x1="29.08" y1="106.73" x2="207.95" y2="106.73" gradientUnits="userSpaceOnUse"><stop offset="0" stop-color="#efa6c2"/><stop offset="1" stop-color="#96cdbd"/></linearGradient></defs><title>Washer</title><g class="cls-1"><g id="Layer_2" data-name="Layer 2"><g id="Layer_1-2" data-name="Layer 1"><path class="cls-2" d="M181.57,127.85a34.79,34.79,0,0,0-15.73-52.59A62.06,62.06,0,1,0,49.32,89.1a62.06,62.06,0,0,0,73.58,99.16,44.78,44.78,0,1,0,58.66-60.41Z"/><path class="cls-3" d="M129.53,202h37.8a13.83,13.83,0,0,0,13.83-13.82V68.41a13.83,13.83,0,0,0-13.83-13.83H65.06A13.83,13.83,0,0,0,51.24,68.41V188.19A13.82,13.82,0,0,0,65.06,202h37.81"/><circle class="cls-4" cx="116.2" cy="141.9" r="35.27"/><circle class="cls-5" cx="140.83" cy="74.65" r="4.24"/><circle class="cls-5" cx="162.16" cy="74.65" r="4.24"/><rect class="cls-4" x="66.49" y="68.15" width="38" height="13" rx="6.5" ry="6.5"/><path class="cls-6" d="M14,104.31H11.58v-2.47a3,3,0,0,0-6.07,0v2.47H3a3,3,0,0,0,0,6.07H5.5v2.47a3,3,0,1,0,6.07,0v-2.47H14a3,3,0,0,0,0-6.07Z"/><path class="cls-6" d="M207.46,205.73H205v-2.47a3,3,0,0,0-6.07,0v2.47h-2.47a3,3,0,0,0,0,6.07h2.47v2.47a3,3,0,1,0,6.07,0V211.8h2.47a3,3,0,0,0,0-6.07Z"/><path class="cls-6" d="M213.83,34.72h-3.25V31.47a4,4,0,0,0-8,0v3.25h-3.25a4,4,0,0,0,0,8h3.25V46a4,4,0,1,0,8,0V42.72h3.25a4,4,0,0,0,0-8Z"/><path class="cls-7" d="M81,129.81c35.24,0,35.24,20,70.48,20"/><line class="cls-7" x1="102.61" y1="174.45" x2="102.61" y2="155.57"/><line class="cls-7" x1="102.61" y1="147.57" x2="102.61" y2="152.57"/><line class="cls-7" x1="66.83" y1="202.01" x2="66.83" y2="139.81"/><line class="cls-7" x1="66.83" y1="127.07" x2="66.83" y2="133.23"/><circle class="cls-6" cx="116.2" cy="202.01" r="3.33"/></g></g></g></svg>